<svg width="310" height="270" viewBox="0 0 310 270" fill="none" xmlns="http://www.w3.org/2000/svg">
<path d="M147.253 106.717C147.253 135.395 143.116 160.489 134.844 181.998C126.02 204.058 111.68 222.533 91.8262 237.424C71.4204 252.315 44.6722 263.069 11.5818 269.687L7.95921e-05 241.56C23.1634 229.427 39.7087 213.709 49.6358 194.407C59.563 175.655 64.8023 151.389 65.3538 121.607H18.1998V-0.000127967H147.253L147.253 106.717ZM309.396 106.717C309.396 135.395 305.26 160.489 296.987 181.998C288.163 204.058 273.824 222.533 253.97 237.424C233.564 252.315 207.091 263.069 174.552 269.687L162.143 241.56C185.307 229.427 201.852 213.709 211.779 194.407C221.706 175.655 226.946 151.389 227.497 121.607H180.343L180.343 -0.000127967H309.396V106.717Z" fill="#FF8A62"/>
</svg>
