<svg width="91" height="79" viewBox="0 0 91 79" fill="none" xmlns="http://www.w3.org/2000/svg">
<path d="M47.4295 47.6717C47.4295 39.2827 48.6395 31.9423 51.0594 25.6506C53.6406 19.1975 57.8351 13.7931 63.6428 9.43727C69.6119 5.08146 77.4363 1.93558 87.1159 -0.000337571L90.5037 8.22733C83.728 11.7765 78.8882 16.3743 75.9843 22.0207C73.0804 27.5058 71.5478 34.6042 71.3865 43.3158L85.1799 43.3158L85.1799 78.8883L47.4295 78.8883L47.4295 47.6717ZM-0.000478583 47.6717C-0.000478583 39.2827 1.20947 31.9423 3.62937 25.6506C6.21059 19.1975 10.4051 13.7931 16.2128 9.43727C22.1819 5.08146 29.9256 1.93558 39.4439 -0.000337571L43.0737 8.22733C36.298 11.7765 31.4582 16.3743 28.5543 22.0207C25.6504 27.5058 24.1178 34.6042 23.9565 43.3158L37.7499 43.3158L37.7499 78.8883L-0.000478583 78.8883L-0.000478583 47.6717Z" fill="#FF8A62"/>
</svg>
